<?xml version="1.0" encoding="utf-8"?>
<!-- Generator: Adobe Illustrator 19.2.1, SVG Export Plug-In . SVG Version: 6.00 Build 0)  -->
<svg version="1.1" id="Layer_1" xmlns="http://www.w3.org/2000/svg" xmlns:xlink="http://www.w3.org/1999/xlink" x="0px" y="0px"
	 viewBox="0 0 494.4 452.1" style="enable-background:new 0 0 494.4 452.1;" xml:space="preserve">
<style type="text/css">
	.st0{fill:url(#SVGID_1_);}
	.st1{fill:url(#SVGID_2_);}
	.st2{fill:url(#SVGID_3_);}
	.st3{fill:#8A8A8A;}
	.st4{fill:#F1F1F1;}
	.st5{fill:#5A5A5A;}
	.st6{fill:#9B9B9B;}
	.st7{fill:#F7F7F7;}
	.st8{fill:#E4E4E4;}
	.st9{fill:#E9E9E9;}
	.st10{fill:url(#SVGID_4_);}
	.st11{fill:#808080;}
	.st12{fill:#FFFFFF;}
	.st13{fill:#767676;}
	.st14{fill:url(#SVGID_5_);}
	.st15{fill:#C3C3C3;}
	.st16{fill:#DEDEDE;}
	.st17{fill:url(#SVGID_6_);}
	.st18{fill:#2D2D2D;}
	.st19{fill:#EAEAEA;}
	.st20{fill:#3D3D3D;}
	.st21{fill:#5D5D5D;}
	.st22{fill:#353535;}
</style>
<g>
	
		<linearGradient id="SVGID_1_" gradientUnits="userSpaceOnUse" x1="232.1278" y1="-101.348" x2="232.1278" y2="119.0811" gradientTransform="matrix(1 0 0 -1 0 346.82)">
		<stop  offset="0" style="stop-color:#919191"/>
		<stop  offset="0.25" style="stop-color:#8D8D8D"/>
		<stop  offset="0.53" style="stop-color:#838383"/>
		<stop  offset="0.81" style="stop-color:#727272"/>
		<stop  offset="1" style="stop-color:#646464"/>
	</linearGradient>
	<rect x="227.5" y="227.7" class="st0" width="9.2" height="220.4"/>
	
		<linearGradient id="SVGID_2_" gradientUnits="userSpaceOnUse" x1="179.5911" y1="-102.1955" x2="179.5911" y2="121.832" gradientTransform="matrix(0.9964 -8.730019e-04 -8.730019e-04 -0.9964 -1.6769 346.4244)">
		<stop  offset="0" style="stop-color:#919191"/>
		<stop  offset="0.25" style="stop-color:#8D8D8D"/>
		<stop  offset="0.53" style="stop-color:#838383"/>
		<stop  offset="0.81" style="stop-color:#727272"/>
		<stop  offset="1" style="stop-color:#646464"/>
	</linearGradient>
	<polygon class="st1" points="87.1,442.4 260.3,224 267.5,229.8 94.2,448.2 	"/>
	
		<linearGradient id="SVGID_3_" gradientUnits="userSpaceOnUse" x1="290.4872" y1="-101.1881" x2="290.4872" y2="122.8751" gradientTransform="matrix(0.9964 1.046912e-03 1.046912e-03 -0.9964 -1.6822 347.314)">
		<stop  offset="0" style="stop-color:#919191"/>
		<stop  offset="0.25" style="stop-color:#8D8D8D"/>
		<stop  offset="0.53" style="stop-color:#838383"/>
		<stop  offset="0.81" style="stop-color:#727272"/>
		<stop  offset="1" style="stop-color:#646464"/>
	</linearGradient>
	<polygon class="st2" points="197.5,229.9 204.8,224 378,442.4 370.8,448.2 	"/>
	<polygon class="st3" points="390.2,342.1 232.5,342.1 231.2,342.1 73.5,342.1 53.1,342.1 53.1,321.6 53.1,82.4 53.1,62 73.5,62 
		231.2,62 232.5,62 390.2,62 410.6,62 410.6,82.4 410.6,321.6 410.6,342.1 	"/>
	<path class="st4" d="M376.2,74.3H87.4c-10.2,0-18.6,8.3-18.6,18.6V311c0,10.2,8.3,18.6,18.6,18.6h288.7c10.2,0,18.6-8.3,18.6-18.6
		V93C394.8,82.7,386.5,74.3,376.2,74.3L376.2,74.3z"/>
	<rect x="73.8" y="439" class="st5" width="34.3" height="13.1"/>
	<rect x="215" y="439" class="st5" width="34.3" height="13.1"/>
	<rect x="354.3" y="439" class="st5" width="34.3" height="13.1"/>
</g>
<g>
	<rect x="91" y="91" class="st6" width="56" height="6"/>
	<rect x="159.1" y="91" class="st6" width="128.7" height="6"/>
	<rect x="304.1" y="91" class="st6" width="70.2" height="6"/>
</g>
<g>
	<rect x="91" y="104" class="st6" width="56" height="6"/>
	<rect x="159.1" y="104" class="st6" width="128.7" height="6"/>
	<rect x="304.1" y="104" class="st6" width="70.2" height="6"/>
</g>
<g>
	<rect x="91" y="117" class="st6" width="56" height="6"/>
	<rect x="159.1" y="117" class="st6" width="128.7" height="6"/>
	<rect x="304.1" y="117" class="st6" width="70.2" height="6"/>
</g>
<g>
	<rect x="91" y="130" class="st6" width="56" height="6"/>
	<rect x="159.1" y="130" class="st6" width="128.7" height="6"/>
	<rect x="304.1" y="130" class="st6" width="70.2" height="6"/>
</g>
<g>
	<rect x="91" y="143" class="st6" width="56" height="6"/>
	<rect x="159.1" y="143" class="st6" width="128.7" height="6"/>
	<rect x="304.1" y="143" class="st6" width="70.2" height="6"/>
</g>
<g>
	<rect x="91" y="156" class="st6" width="56" height="6"/>
	<rect x="159.1" y="156" class="st6" width="128.7" height="6"/>
	<rect x="304.1" y="156" class="st6" width="70.2" height="6"/>
</g>
<g>
	<rect x="91" y="169" class="st6" width="56" height="6"/>
	<rect x="159.1" y="169" class="st6" width="128.7" height="6"/>
	<rect x="304.1" y="169" class="st6" width="70.2" height="6"/>
</g>
<g>
	<rect x="91" y="182" class="st6" width="56" height="6"/>
	<rect x="159.1" y="182" class="st6" width="128.7" height="6"/>
	<rect x="304.1" y="182" class="st6" width="70.2" height="6"/>
</g>
<g>
	<rect x="91" y="195" class="st6" width="56" height="6"/>
	<rect x="159.1" y="195" class="st6" width="128.7" height="6"/>
	<rect x="304.1" y="195" class="st6" width="70.2" height="6"/>
</g>
<g>
	<rect x="91" y="208" class="st6" width="56" height="6"/>
	<rect x="159.1" y="208" class="st6" width="128.7" height="6"/>
	<rect x="304.1" y="208" class="st6" width="70.2" height="6"/>
</g>
<g>
	<rect x="91" y="221" class="st6" width="56" height="6"/>
	<rect x="159.1" y="221" class="st6" width="128.7" height="6"/>
	<rect x="304.1" y="221" class="st6" width="70.2" height="6"/>
</g>
<g>
	<rect x="91" y="234" class="st6" width="56" height="6"/>
	<rect x="159.1" y="234" class="st6" width="128.7" height="6"/>
	<rect x="304.1" y="234" class="st6" width="70.2" height="6"/>
</g>
<g>
	<rect x="91" y="247" class="st6" width="56" height="6"/>
	<rect x="159.1" y="247" class="st6" width="128.7" height="6"/>
	<rect x="304.1" y="247" class="st6" width="70.2" height="6"/>
</g>
<g>
	<rect x="91" y="260" class="st6" width="56" height="6"/>
	<rect x="159.1" y="260" class="st6" width="128.7" height="6"/>
	<rect x="304.1" y="260" class="st6" width="70.2" height="6"/>
</g>
<g>
	<rect x="91" y="273" class="st6" width="56" height="6"/>
	<rect x="159.1" y="273" class="st6" width="128.7" height="6"/>
	<rect x="304.1" y="273" class="st6" width="70.2" height="6"/>
</g>
<g>
	<rect x="91" y="286" class="st6" width="56" height="6"/>
	<rect x="159.1" y="286" class="st6" width="128.7" height="6"/>
	<rect x="304.1" y="286" class="st6" width="70.2" height="6"/>
</g>
<g>
	<rect x="91" y="299" class="st6" width="56" height="6"/>
	<rect x="159.1" y="299" class="st6" width="128.7" height="6"/>
	<rect x="304.1" y="299" class="st6" width="70.2" height="6"/>
</g>
<g>
	<rect x="91" y="312" class="st6" width="56" height="6"/>
	<rect x="159.1" y="312" class="st6" width="128.7" height="6"/>
	<rect x="304.1" y="312" class="st6" width="70.2" height="6"/>
</g>
<title>mascot-01-gray</title>
<path class="st7" d="M351.5,344.6c-1.2-0.2-2.3-0.9-3.2-1.7h3.1L351.5,344.6z"/>
<path class="st8" d="M341.9,372c0,0,0.6-7.4-2.3-7.3c-2.9,0-1.8,4.4-1.8,4.4s-8.1-6.8-10.2-4.3c-2.2,2.5,4.3,4.3,4.3,4.3
	s-6.3-1.5-6.3,2.1s5.5,2.5,5.5,2.5s-5.1,2.7-3,4.9c2.1,2.3,5.8-0.9,5.8-0.9c0.8,0.7,1.8,0.9,2.8,0.8L341.9,372z"/>
<path class="st9" d="M383.8,378.1c0,0-6.9,8.8-21.7,8.7s-21.7-6.5-21.7-6.5l4.9-5.8c5.1,3,10.9,4.6,16.8,4.8
	c9,0,21.7-10.6,21.7-10.6V378.1L383.8,378.1z"/>
<path class="st5" d="M391.5,417.5L391.5,417.5l1.6,34.7h-21.4c0,0,8-5.4,14.4-7.4l-2.3-34.6h26.3l-2.4,34.6c6.5,2,14.4,7.4,14.4,7.4
	h-21.4l1.6-34.7H391.5L391.5,417.5z"/>
<path class="st9" d="M410.2,376.8c0,0,5.8-0.2,7.9,7.9c2.3,9.2-5.9,13.5-5.9,13.5v9.6c0,0,17.1-6.1,13-24.2
	c-3.9-16.5-16.7-16.5-16.7-16.5L410.2,376.8z"/>
<linearGradient id="SVGID_4_" gradientUnits="userSpaceOnUse" x1="419.3472" y1="-50.8398" x2="411.2662" y2="-56.3834" gradientTransform="matrix(1 0 0 -1 0 346.82)">
	<stop  offset="0" style="stop-color:#EFEFEF;stop-opacity:0"/>
	<stop  offset="1" style="stop-color:#C2C2C2"/>
</linearGradient>
<path class="st10" d="M421.6,400.9c-2.5,3-5.8,5.3-9.4,6.8v-9.6c2-1.1,3.6-2.7,4.8-4.7L421.6,400.9z"/>
<path class="st11" d="M413.2,407.7l-2.5-40.6l-14.1,1.1l-14.1-1.1l-2.5,40.6c0,0-0.5,2.9,3.7,3.2h25.7
	C413.7,410.6,413.2,407.7,413.2,407.7z"/>
<polygon class="st9" points="410.7,367 396.4,385.7 382.5,367 "/>
<polygon class="st5" points="402.2,368.1 396.4,368.1 390.6,368.8 394.6,373.8 392.4,380.8 396.4,385.7 400.3,380.8 398.2,373.8 "/>
<polygon class="st12" points="394.7,368.1 390.6,374.6 382.5,367 394.7,367 "/>
<polygon class="st12" points="398.1,368.1 402.2,374.6 410.3,367 398.1,367 "/>
<rect x="401.4" y="383.9" class="st13" width="7.6" height="2.7"/>
<linearGradient id="SVGID_5_" gradientUnits="userSpaceOnUse" x1="359.1083" y1="-37.3673" x2="342.5925" y2="-28.7188" gradientTransform="matrix(1 0 0 -1 0 346.82)">
	<stop  offset="0" style="stop-color:#EFEFEF;stop-opacity:0"/>
	<stop  offset="1" style="stop-color:#C2C2C2"/>
</linearGradient>
<path class="st14" d="M362.1,379.4c-5.9-0.2-11.7-1.9-16.8-4.9l-4.9,5.8c0,0,6.9,6.3,21.7,6.4V379.4L362.1,379.4L362.1,379.4z"/>
<polygon class="st9" points="346.8,374.6 341.3,381.8 336.3,379.4 342.3,370.9 "/>
<g>
	<g>
		<path class="st15" d="M376.2,320.8c0,0-15.1,4.7-12-8.9c3.1-13.6,14.3-1.7,14.3-1.7L376.2,320.8z"/>
		<path class="st16" d="M445,344.6c17.3-36.6-23.4-47.1-34.3-49.4c-10.9-2.3-30.9-14.1-33.9,2.7c-1.7,9.6-6.7,20.1-10.4,29.2l0,0
			c-8.4,21.2,10.6,34.2,10.6,34.2l0,0c4.9,3.3,10.1,5.9,14.1,7.1c9.6,3,23.8,1.8,32-1c7.8-2.7,21.5-21.3,21.5-21.3L445,344.6z"/>
		<g>
			<path class="st15" d="M441.9,342.9c0,0-9.3,15.7-19.1,20.4c-9.8,4.7-20.1,5.7-32.5,1.9c-10.4-3.2-18.3-10-22.9-15
				c3.8,7.1,9.6,11.1,9.6,11.1l0,0c4.9,3.3,10.1,5.9,14.1,7.1c9.6,3,23.8,1.8,32-1c7.8-2.7,21.5-21.3,21.5-21.3L441.9,342.9z"/>
		</g>
		
			<radialGradient id="SVGID_6_" cx="-631.088" cy="-86.5777" r="8.1996" gradientTransform="matrix(-0.5826 -0.2326 0.2326 -0.5826 26.1698 128.0146)" gradientUnits="userSpaceOnUse">
			<stop  offset="0" style="stop-color:#C8C8C8"/>
			<stop  offset="0.439" style="stop-color:#CECECE;stop-opacity:0.561"/>
			<stop  offset="1" style="stop-color:#DFDFDF;stop-opacity:0"/>
		</radialGradient>
		<circle class="st17" cx="373.7" cy="325.2" r="5.1"/>
		
			<ellipse transform="matrix(0.3708 -0.9287 0.9287 0.3708 -56.5613 560.9302)" class="st18" cx="385.7" cy="322.2" rx="3.8" ry="3.8"/>
		
			<ellipse transform="matrix(0.3708 -0.9287 0.9287 0.3708 -66.2339 571.1393)" class="st19" cx="388.4" cy="334.4" rx="1.4" ry="1.4"/>
		<path class="st15" d="M438.9,309.6c0,0-16.5-1.5-28.9-4.3c0,0-1.9,0.3-6.3-0.1c9.6,4.1,31.2,6.3,31.2,6.3s-4.4,20,9.9,33.5
			C432,331.8,438.9,309.6,438.9,309.6z"/>
		
			<ellipse transform="matrix(0.3708 -0.9287 0.9287 0.3708 -56.3663 560.2542)" class="st20" cx="385.3" cy="321.7" rx="2.1" ry="2.1"/>
		<path class="st15" d="M383.5,334.1c0,0,4.1,5.2,6.5,6.5C390.1,340.5,381.5,340.5,383.5,334.1z"/>
		<path class="st15" d="M429.6,334c0,0-1.4-6.6-11.7-10.7c-10.3-4.1-13.6-2.3-13.6-2.3l-7.9-3.1c0,0-7-6-11.8-7.9
			c-4.9-2-10.4-2.4-10.4-2.4l0.9-2.6l11.4,2.4l15.3,9.6l18.9,4.1l8.2,5.8l1,6.6L429.6,334z"/>
		<g>
			<path class="st21" d="M434.6,328.1c0,0-6.6-6-14.9-9.3c-8.3-3.3-14.5-2.5-18.3-4c-3.8-1.5-7.7-6.4-16-9.8
				c-8.3-3.3-17.2-3.5-17.2-3.5c-1.5-0.1-2.5,2.7-2.1,4.1c0.4,1.3,0.3,2.6,0.3,2.6c-1.7,6.7-2.5,18.1,9.2,22.9
				c11.7,4.8,19-6.9,20.5-9.2c1.5-2.3,3-1.5,3-1.5s1.7,0.4,1.2,3.1c-0.5,2.7-3.2,16.2,8.5,20.7c11.7,4.6,19.1-4.2,22.4-10.2
				c0,0,0.8-1,2-1.7C434.6,331.8,435.9,329.1,434.6,328.1z M376.3,328.4c-9.5-3.1-8.8-13.4-5.8-19.1s14.3-0.7,14.3-0.7
				s9.8,3.2,8.6,9.5C392,324.4,385.8,331.4,376.3,328.4z M410.4,342c-9-4.3-8.7-13.7-5.3-19.1c3.4-5.4,12.8-1,12.8-1
				s11.7,4.1,9.9,10.3C426,338.4,419.5,346.4,410.4,342z"/>
			<path class="st12" d="M368.1,304.4c0.3-0.8,1.3-1.2,2.1-0.9c0.8,0.3,1.2,1.3,0.9,2.1c-0.3,0.8-1.3,1.2-2.1,0.9
				C368.1,306.2,367.7,305.2,368.1,304.4z"/>
			<path class="st12" d="M432.9,330.3c0.3-0.8-0.1-1.7-0.9-2.1c-0.8-0.3-1.7,0.1-2.1,0.9c-0.3,0.8,0.1,1.7,0.9,2.1
				C431.6,331.5,432.5,331.1,432.9,330.3z"/>
		</g>
		
			<ellipse transform="matrix(0.3708 -0.9287 0.9287 0.3708 -50.9632 590.2141)" class="st18" cx="410.1" cy="332.7" rx="3.8" ry="3.8"/>
		
			<ellipse transform="matrix(0.3708 -0.9287 0.9287 0.3708 -50.5581 589.7446)" class="st20" cx="409.9" cy="332.2" rx="2.1" ry="2.1"/>
		<g>
			<path class="st22" d="M458.6,300.4c0,0-2.1-13.8-22.2-25.3c-20.1-11.5-44-7-53.9,5.6c-9.9,12.6-6.4,20.8-6.4,20.8l7.9-11.1
				c10.5,9,26.5,12,26.5,12c-1.8,0.7-7.3,1.1-7.3,1.1c0.3,0.1,0.8,0.2,1.1,0.4c12.1,3.7,34.6,5.8,34.6,5.8s-6.9,22.1,5.9,35.5
				C444.8,345.1,473.2,322.5,458.6,300.4z"/>
		</g>
		<path class="st18" d="M458.6,300.4c0,0-26.1-2.3-45.7-8.3c-19.5-6.1-30.5-11.4-30.5-11.4c-9.9,12.6-6.4,20.8-6.4,20.8l7.9-11.1
			c10.5,9,26.5,12,26.5,12c-1.8,0.7-7.3,1.1-7.3,1.1c0.3,0.1,0.8,0.2,1.1,0.4c12.1,3.7,34.6,5.8,34.6,5.8s-7,22.5,5.8,35.8
			C444.7,345.4,473.2,322.5,458.6,300.4z"/>
		<path class="st15" d="M383.9,290.4c10.5,9,26.5,12,26.5,12c-0.8,0.3-2.4,0.5-3.9,0.8C406.6,303.1,390.3,298.7,383.9,290.4z"/>
		<path class="st16" d="M435.2,350.7c0,0,8.2,13.5,14.9,1.2c6.7-12.3-9.6-10.8-9.6-10.8L435.2,350.7z"/>
		<path class="st22" d="M413.5,310.5c0,0,4.7-3.3,9.2-0.5c4.5,2.8,4.3,7.4,4.3,7.4s-2.2-3.6-5.4-5.2
			C417.2,310.1,413.5,310.5,413.5,310.5z"/>
		<path class="st22" d="M385.1,300.2c0,0,3.1-3.3,8.3-2c5.2,1.3,6,7,6,7s-2.3-3.4-6.8-4.9C388.1,298.9,385.1,300.2,385.1,300.2z"/>
	</g>
	<ellipse transform="matrix(0.3708 -0.9287 0.9287 0.3708 -83.2579 574.0542)" class="st5" cx="382" cy="348.5" rx="3.1" ry="2.5"/>
</g>
</svg>
