<?xml version="1.0" encoding="utf-8"?>
<!-- Generator: Adobe Illustrator 19.2.1, SVG Export Plug-In . SVG Version: 6.00 Build 0)  -->
<svg version="1.1" id="Layer_1" xmlns="http://www.w3.org/2000/svg" xmlns:xlink="http://www.w3.org/1999/xlink" x="0px" y="0px"
	 viewBox="0 0 494.4 452.1" style="enable-background:new 0 0 494.4 452.1;" xml:space="preserve">
<style type="text/css">
	.st0{fill:#5F5F5F;}
	.st1{fill:url(#SVGID_1_);}
	.st2{fill:url(#SVGID_2_);}
	.st3{fill:url(#SVGID_3_);}
	.st4{fill:#8A8A8A;}
	.st5{fill:#F1F1F1;}
	.st6{fill:#5A5A5A;}
	.st7{opacity:0.15;fill:#5A5A5A;enable-background:new    ;}
	.st8{fill:#F7F7F7;}
	.st9{fill:#E4E4E4;}
	.st10{fill:#E9E9E9;}
	.st11{fill:url(#SVGID_4_);}
	.st12{fill:#808080;}
	.st13{fill:#FFFFFF;}
	.st14{fill:#767676;}
	.st15{fill:url(#SVGID_5_);}
	.st16{fill:#C3C3C3;}
	.st17{fill:#DEDEDE;}
	.st18{fill:url(#SVGID_6_);}
	.st19{fill:#2D2D2D;}
	.st20{fill:#EAEAEA;}
	.st21{fill:#3D3D3D;}
	.st22{fill:#5D5D5D;}
	.st23{fill:#353535;}
	.st24{fill:#9B9B9B;}
</style>
<title>mascot-01-gray</title>
<path class="st0" d="M200.7,313.9c-2-4.4-3.6-9-4.8-13.7l16.6-20.8L200.7,313.9z"/>
<path class="st0" d="M225.1,345.1c-3.7-2.8-7.1-6-10.2-9.4l11.8-29L225.1,345.1z"/>
<linearGradient id="SVGID_1_" gradientUnits="userSpaceOnUse" x1="150.27" y1="555.95" x2="150.27" y2="371" gradientTransform="matrix(1 0 0 1 0 -107.18)">
	<stop  offset="0" style="stop-color:#919191"/>
	<stop  offset="0.25" style="stop-color:#8D8D8D"/>
	<stop  offset="0.53" style="stop-color:#838383"/>
	<stop  offset="0.81" style="stop-color:#727272"/>
	<stop  offset="1" style="stop-color:#646464"/>
</linearGradient>
<rect x="146.4" y="263.8" class="st1" width="7.7" height="185"/>
<linearGradient id="SVGID_2_" gradientUnits="userSpaceOnUse" x1="105.4644" y1="556.3467" x2="105.4644" y2="368.3267" gradientTransform="matrix(0.9964 -8.730019e-04 8.730019e-04 0.9964 -1.2843 -105.5479)">
	<stop  offset="0" style="stop-color:#919191"/>
	<stop  offset="0.25" style="stop-color:#8D8D8D"/>
	<stop  offset="0.53" style="stop-color:#838383"/>
	<stop  offset="0.81" style="stop-color:#727272"/>
	<stop  offset="1" style="stop-color:#646464"/>
</linearGradient>
<polygon class="st2" points="28.5,444 173.9,260.7 179.9,265.5 34.5,448.8 "/>
<linearGradient id="SVGID_3_" gradientUnits="userSpaceOnUse" x1="198.4617" y1="555.9272" x2="198.4617" y2="367.8772" gradientTransform="matrix(0.9964 1.046912e-03 -1.046912e-03 0.9964 -0.3162 -105.1037)">
	<stop  offset="0" style="stop-color:#919191"/>
	<stop  offset="0.25" style="stop-color:#8D8D8D"/>
	<stop  offset="0.53" style="stop-color:#838383"/>
	<stop  offset="0.81" style="stop-color:#727272"/>
	<stop  offset="1" style="stop-color:#646464"/>
</linearGradient>
<polygon class="st3" points="121.2,265.6 127.3,260.7 272.7,444 266.6,448.8 "/>
<polygon class="st4" points="282.9,359.8 150.6,359.8 149.5,359.8 17.1,359.8 0,359.8 0,342.6 0,141.8 0,124.7 17.1,124.7 
	149.5,124.7 150.6,124.7 282.9,124.7 300,124.7 300,141.8 300,342.6 300,359.8 "/>
<path class="st5" d="M271.2,135H28.8c-8.6,0-15.6,7-15.6,15.6v183.1c0,8.6,7,15.6,15.6,15.6h242.3c8.6,0,15.6-7,15.6-15.6v-183
	C286.8,142.1,279.8,135,271.2,135C271.2,135,271.2,135,271.2,135z"/>
<rect x="17.4" y="441.1" class="st6" width="28.8" height="11"/>
<rect x="135.9" y="441.1" class="st6" width="28.8" height="11"/>
<rect x="252.8" y="441.1" class="st6" width="28.8" height="11"/>
<path class="st7" d="M299.9,301c0,0-38.2,7.5-63.6-11.5l-1.4,1l-14-6.2l0.8-3.3c-1.9,0.9-4,0.9-5.9,0c-1.7,3.5-5.9,4.8-9.4,3.1
	c0,0,0,0,0,0l-0.1-0.1c-6.8-2.8,1.1-10.4,1.1-10.4l3.4-5.9l-4.6,4.9c0,0-10.1,2.8-10.1-4.9s11.8-6.9,11.8-6.9s-12.1-1.3-11.1-7.7
	s17.7,0,17.7,0l10.3-2c0,0-0.5-3.6,2-4.2s11.2,9.8,11.2,9.8l13.4,17.5l48.4,7.5L299.9,301L299.9,301z"/>
<path class="st7" d="M299.9,250c0,0-34.6-3.1-37.3-52.7c0,0-19.3-3.1-21.4-28.9c-3.1-1.2-5.5-3.9-6.3-7.2
	c-1-5.3,19.6-10.5,33.6-11.2s31.3,21,31.3,21L299.9,250L299.9,250z"/>
<path class="st8" d="M261.8,190.6c-3-0.6-5.7-2.1-7.9-4.2h7.5L261.8,190.6z"/>
<path class="st9" d="M238.6,257.1c0,0,1.5-17.9-5.6-17.8s-4.3,10.7-4.3,10.7s-19.6-16.6-24.9-10.5s10.4,10.4,10.4,10.4
	s-15.2-3.7-15.2,5.2s13.4,6.2,13.4,6.2s-12.5,6.5-7.4,12s14.2-2.2,14.2-2.2c1.9,1.6,4.4,2.3,6.9,1.9L238.6,257.1z"/>
<path class="st10" d="M340.4,272.1c0,0-16.8,21.3-52.7,21.1S235,277.5,235,277.5l11.9-14c12.4,7.2,26.4,11.2,40.8,11.7
	c21.8,0,52.7-25.8,52.7-25.8L340.4,272.1L340.4,272.1z"/>
<path class="st6" d="M359.1,367.8L359.1,367.8l3.9,84.4h-52.1c0,0,19.4-13.2,35.1-18l-5.7-84.1h64l-5.8,84.1
	c15.7,4.8,35.1,18,35.1,18h-52.1l3.9-84.4L359.1,367.8L359.1,367.8z"/>
<path class="st10" d="M404.7,268.8c0,0,14.2-0.5,19.2,19.1c5.6,22.4-14.4,32.8-14.4,32.8V344c0,0,41.7-14.9,31.6-58.9
	c-9.4-40.1-40.5-40.1-40.5-40.1L404.7,268.8z"/>
<linearGradient id="SVGID_4_" gradientUnits="userSpaceOnUse" x1="426.8329" y1="426.7642" x2="407.1829" y2="440.2442" gradientTransform="matrix(1 0 0 1 0 -107.18)">
	<stop  offset="0" style="stop-color:#EFEFEF;stop-opacity:0"/>
	<stop  offset="1" style="stop-color:#C2C2C2"/>
</linearGradient>
<path class="st11" d="M432.3,327.5c-6.2,7.3-14,13-22.9,16.5v-23.3c4.8-2.7,8.8-6.6,11.7-11.4L432.3,327.5z"/>
<path class="st12" d="M411.9,344l-6-98.8l-34.3,2.6l-34.3-2.6l-6,98.8c0,0-1.2,7.1,9.1,7.7h62.5C413,351,411.9,344,411.9,344z"/>
<polygon class="st10" points="405.9,245.1 371,290.4 337.2,245.1 "/>
<polygon class="st6" points="385.1,247.7 371,247.7 356.9,249.5 366.6,261.6 361.3,278.5 371,290.4 380.6,278.5 375.4,261.6 "/>
<polygon class="st13" points="366.8,247.7 356.9,263.6 337.2,245.1 366.8,245.1 "/>
<polygon class="st13" points="375.2,247.7 385.1,263.6 404.8,245.1 375.2,245.1 "/>
<rect x="383.3" y="286.2" class="st14" width="18.6" height="6.5"/>
<linearGradient id="SVGID_5_" gradientUnits="userSpaceOnUse" x1="280.3217" y1="394.0568" x2="240.1617" y2="373.0268" gradientTransform="matrix(1 0 0 1 0 -107.18)">
	<stop  offset="0" style="stop-color:#EFEFEF;stop-opacity:0"/>
	<stop  offset="1" style="stop-color:#C2C2C2"/>
</linearGradient>
<path class="st15" d="M287.7,275.2c-14.4-0.5-28.4-4.6-40.8-11.8l-11.9,14c0,0,16.8,15.4,52.7,15.6L287.7,275.2L287.7,275.2
	L287.7,275.2z"/>
<polygon class="st10" points="250.4,263.6 237.1,280.9 224.9,275.2 239.4,254.4 "/>
<g>
	<g>
		<path class="st16" d="M295.2,169.4c0,0-27.7,26.7-35.8-6.2c-8.1-32.9,29.2-19.5,29.2-19.5L295.2,169.4z"/>
		<path class="st17" d="M470.6,145.6C468,47.1,368.2,69.1,342,76.2c-26.2,7.1-82.6,3.4-70.6,43c6.9,22.8,7.5,51,9.5,74.8
			c0,0,0,0,0,0c5.1,55.2,60.5,62.5,60.5,62.5l0,0c14.3,1.8,28.4,1.6,38.3-0.1c24.1-4.1,53.5-22.2,68.3-37.3
			c14.1-14.4,23.2-69.8,23.2-69.8L470.6,145.6z"/>
		<g>
			<path class="st16" d="M462.2,145.3c0,0-2.9,44.2-19.1,65.3c-16.2,21-37.3,34.5-68.4,39.7c-26.2,4.5-50.6-1.6-66.2-7.3
				c16,11.3,32.9,13.5,32.9,13.5l0,0c14.3,1.8,28.4,1.6,38.3-0.1c24.1-4.1,53.5-22.2,68.3-37.3c14.1-14.4,23.2-69.8,23.2-69.8
				L462.2,145.3z"/>
		</g>
		
			<radialGradient id="SVGID_6_" cx="67.9768" cy="257.347" r="19.9308" gradientTransform="matrix(-0.6248 5.562748e-02 5.562748e-02 0.6248 322.8422 17.2727)" gradientUnits="userSpaceOnUse">
			<stop  offset="0" style="stop-color:#C8C8C8"/>
			<stop  offset="0.439" style="stop-color:#CECECE;stop-opacity:0.561"/>
			<stop  offset="1" style="stop-color:#DFDFDF;stop-opacity:0"/>
		</radialGradient>
		<circle class="st18" cx="294.7" cy="181.9" r="12.5"/>
		
			<ellipse transform="matrix(0.9961 -8.867763e-02 8.867763e-02 0.9961 -13.1231 28.7889)" class="st19" cx="317.4" cy="162.1" rx="9.3" ry="9.3"/>
		
			<ellipse transform="matrix(0.9961 -8.867763e-02 8.867763e-02 0.9961 -15.1413 30.5896)" class="st20" cx="336.7" cy="185.7" rx="3.4" ry="3.4"/>
		<path class="st16" d="M419,76.4c0,0-37.4,14.9-67.3,22.4c0,0-3.9,2.7-13.7,6.7c25.3-1.6,74.5-20.6,74.5-20.6s12.4,48.3,58.3,61.9
			C428.5,132,419,76.4,419,76.4z"/>
		
			<ellipse transform="matrix(0.9961 -8.867763e-02 8.867763e-02 0.9961 -13.0755 28.6579)" class="st21" cx="316" cy="161.5" rx="5.2" ry="5.2"/>
		<path class="st16" d="M325.8,190.2c0,0,14.7,6.7,21.3,6.9C347.1,197,328.4,206.3,325.8,190.2z"/>
		<path class="st16" d="M425.7,139.5c0,0-10.3-12.7-37.1-10.3c-26.9,2.4-32,10-32,10l-20.5,1.8c0,0-21.7-5.3-34.4-4.2
			c-12.7,1.1-25.1,6.2-25.1,6.2l-0.9-6.5l27.3-7.2l43.8,4l45.4-11.9l24.3,3.6l9.3,13.2L425.7,139.5z"/>
		<g>
			<path class="st22" d="M430.1,121.1c0,0-20.9-5.7-42.5-3.8c-21.6,1.9-34.2,10.6-44,11.5c-9.9,0.9-23.8-5.5-45.4-3.6
				c-21.6,1.9-41.2,11.3-41.2,11.3c-3.5,1.4-2.4,8.6,0,11.2c2.3,2.3,3.5,5.3,3.5,5.3c3.6,16.4,14.5,41.9,45,39.5
				c30.6-2.5,33.6-35.7,34.4-42.4c0.7-6.6,4.9-6.5,4.9-6.5s4.1-0.9,6,5.5c1.9,6.4,10.8,38.6,41.3,35.6c30.5-3,36.8-30,37.4-46.8
				c0,0,0.7-3.1,2.5-5.8C434,129.2,433.8,121.9,430.1,121.1z M303.7,185.8c-24.1,3.8-33.8-19.3-33.6-35
				c0.2-15.7,30.2-17.1,30.2-17.1s24.8-3.9,29.1,11.2C333.5,160,327.8,182,303.7,185.8z M392.9,177.9c-24.4,0.5-34-20.1-32.5-35.7
				C361.9,126.6,387,126,387,126s29.8-4,32.7,11.5C422.7,153,417.3,177.4,392.9,177.9z"/>
			<path class="st13" d="M259.7,142.9c-0.2-2.2,1.4-4.1,3.5-4.2c2.2-0.2,4.1,1.4,4.2,3.6c0.2,2.2-1.4,4.1-3.6,4.2
				C261.7,146.6,259.8,145,259.7,142.9z"/>
			<path class="st13" d="M428.6,127.8c-0.2-2.2-2.1-3.7-4.3-3.6c-2.2,0.2-3.7,2.1-3.5,4.2c0.2,2.2,2.1,3.7,4.2,3.5
				C427.2,131.9,428.8,130,428.6,127.8z"/>
		</g>
		
			<ellipse transform="matrix(0.9961 -8.867763e-02 8.867763e-02 0.9961 -12.516 34.4854)" class="st19" cx="381.9" cy="158.1" rx="9.3" ry="9.3"/>
		
			<ellipse transform="matrix(0.9961 -8.867763e-02 8.867763e-02 0.9961 -12.4294 34.4019)" class="st21" cx="381" cy="157.1" rx="5.2" ry="5.2"/>
		<g>
			<path class="st23" d="M451.7,34.6c0,0-19.7-27.6-76-30.4c-56.2-2.8-103.2,33.1-110.9,71.3c-7.7,38.2,8.9,52.3,8.9,52.3l4.9-32.7
				c32.7,8,70.7-3.2,70.7-3.2c-3.2,3.4-14.7,10.5-14.7,10.5c0.9-0.1,1.9-0.3,2.8-0.4c30.4-5.2,81.5-25.4,81.5-25.4
				s9.4,55.6,51.8,70.4C470.8,146.8,507.6,66.6,451.7,34.6z"/>
		</g>
		<path class="st19" d="M451.7,34.6c0,0-59.2,23.8-108.2,32.1c-49,8.3-78.6,8.7-78.6,8.7c-7.7,38.2,8.9,52.3,8.9,52.3l4.9-32.7
			c32.7,8,70.7-3.2,70.7-3.2c-3.2,3.4-14.7,10.5-14.7,10.5c0.9-0.1,1.9-0.3,2.8-0.4c30.4-5.2,81.5-25.4,81.5-25.4
			s9.6,56.4,51.9,71.2C470.9,147.6,507.6,66.6,451.7,34.6z"/>
		<path class="st16" d="M278.7,95c32.7,8,70.7-3.2,70.7-3.2c-1.4,1.5-4.6,3.8-7.6,5.9C341.8,97.6,301.6,106.1,278.7,95z"/>
		<path class="st17" d="M456.1,169.6c0,0,32.7,20.2,33.7-13.7c1-33.9-32.6-12.9-32.6-12.9L456.1,169.6z"/>
		<path class="st23" d="M365,106.1c0,0,6.5-12.3,19.4-11.1c12.9,1.2,17.4,11.3,17.4,11.3s-8.6-5.4-17.4-5.3
			C372.5,101.1,365,106.1,365,106.1z"/>
		<path class="st23" d="M291.9,115.1c0,0,3.1-10.6,15.8-13.4c12.7-2.8,20.7,8.6,20.7,8.6s-8.8-4.8-20.1-3.1
			C297.1,108.9,291.9,115.1,291.9,115.1z"/>
	</g>
	
		<ellipse transform="matrix(0.9961 -8.867763e-02 8.867763e-02 0.9961 -18.4516 30.8813)" class="st6" cx="338.3" cy="223.1" rx="6.2" ry="7.6"/>
</g>
<g>
	<path class="st24" d="M104.5,167.2c14.6-4.3,30-7.5,45.3-7.5c26.3,0,52.2,11.7,52.2,41c0,32-41.6,44.8-38.9,74.8H135
		c0-21.7,8.5-33.6,16.7-43c8.5-9.4,16.9-16.2,16.9-28.1c0-15.1-13-20.8-26.3-20.8c-12.1,0-24.3,4.1-35.2,9.2L104.5,167.2z
		 M133.1,290h32v32h-32V290z"/>
</g>
</svg>
