<?xml version="1.0" encoding="utf-8"?>
<!-- Generator: Adobe Illustrator 19.2.1, SVG Export Plug-In . SVG Version: 6.00 Build 0)  -->
<svg version="1.1" id="Layer_1" xmlns="http://www.w3.org/2000/svg" xmlns:xlink="http://www.w3.org/1999/xlink" x="0px" y="0px"
	 viewBox="0 0 494.4 452.1" style="enable-background:new 0 0 494.4 452.1;" xml:space="preserve">
<style type="text/css">
	.st0{fill:#5F5F5F;}
	.st1{fill:url(#SVGID_1_);}
	.st2{fill:url(#SVGID_2_);}
	.st3{fill:url(#SVGID_3_);}
	.st4{fill:#8A8A8A;}
	.st5{fill:#F1F1F1;}
	.st6{fill:#5A5A5A;}
	.st7{fill:#F7F7F7;}
	.st8{fill:#9B9B9B;}
</style>
<title>mascot-01-gray</title>
<path class="st0" d="M303.5,313.9c-2-4.4-3.6-9-4.8-13.7l16.6-20.8L303.5,313.9z"/>
<path class="st0" d="M327.9,345.1c-3.7-2.8-7.1-6-10.2-9.4l11.8-29L327.9,345.1z"/>
<linearGradient id="SVGID_1_" gradientUnits="userSpaceOnUse" x1="253.05" y1="-101.98" x2="253.05" y2="83.02" gradientTransform="matrix(1 0 0 -1 0 346.82)">
	<stop  offset="0" style="stop-color:#919191"/>
	<stop  offset="0.25" style="stop-color:#8D8D8D"/>
	<stop  offset="0.53" style="stop-color:#838383"/>
	<stop  offset="0.81" style="stop-color:#727272"/>
	<stop  offset="1" style="stop-color:#646464"/>
</linearGradient>
<rect x="249.2" y="263.8" class="st1" width="7.7" height="185"/>
<linearGradient id="SVGID_2_" gradientUnits="userSpaceOnUse" x1="209.4234" y1="-102.8676" x2="209.4234" y2="85.1524" gradientTransform="matrix(0.9964 -8.730019e-04 -8.730019e-04 -0.9964 -1.6769 346.4244)">
	<stop  offset="0" style="stop-color:#919191"/>
	<stop  offset="0.25" style="stop-color:#8D8D8D"/>
	<stop  offset="0.53" style="stop-color:#838383"/>
	<stop  offset="0.81" style="stop-color:#727272"/>
	<stop  offset="1" style="stop-color:#646464"/>
</linearGradient>
<polygon class="st2" points="131.3,444 276.7,260.7 282.7,265.5 137.3,448.8 "/>
<linearGradient id="SVGID_3_" gradientUnits="userSpaceOnUse" x1="302.5288" y1="-101.7656" x2="302.5288" y2="86.2844" gradientTransform="matrix(0.9964 1.046912e-03 1.046912e-03 -0.9964 -1.6822 347.314)">
	<stop  offset="0" style="stop-color:#919191"/>
	<stop  offset="0.25" style="stop-color:#8D8D8D"/>
	<stop  offset="0.53" style="stop-color:#838383"/>
	<stop  offset="0.81" style="stop-color:#727272"/>
	<stop  offset="1" style="stop-color:#646464"/>
</linearGradient>
<polygon class="st3" points="224,265.6 230.1,260.7 375.5,444 369.4,448.8 "/>
<polygon class="st4" points="385.7,359.8 253.4,359.8 252.3,359.8 119.9,359.8 102.8,359.8 102.8,342.6 102.8,141.8 102.8,124.7 
	119.9,124.7 252.3,124.7 253.4,124.7 385.7,124.7 402.8,124.7 402.8,141.8 402.8,342.6 402.8,359.8 "/>
<path class="st5" d="M374,135H131.6c-8.6,0-15.6,7-15.6,15.6v183.1c0,8.6,7,15.6,15.6,15.6h242.3c8.6,0,15.6-7,15.6-15.6v-183
	C389.6,142.1,382.6,135,374,135L374,135z"/>
<rect x="120.2" y="441.1" class="st6" width="28.8" height="11"/>
<rect x="238.7" y="441.1" class="st6" width="28.8" height="11"/>
<rect x="355.6" y="441.1" class="st6" width="28.8" height="11"/>
<path class="st7" d="M364.6,190.6c-3-0.6-5.7-2.1-7.9-4.2h7.5L364.6,190.6z"/>
<g>
	<path class="st8" d="M207.3,167.2c14.6-4.3,30-7.5,45.3-7.5c26.3,0,52.2,11.7,52.2,41c0,32-41.6,44.8-38.9,74.8h-28.1
		c0-21.7,8.5-33.6,16.7-43c8.5-9.4,16.9-16.2,16.9-28.1c0-15.1-13-20.8-26.3-20.8c-12.1,0-24.3,4.1-35.2,9.2L207.3,167.2z
		 M235.9,290h32v32h-32V290z"/>
</g>
</svg>
