<svg id="Layer_1" data-name="Layer 1" xmlns="http://www.w3.org/2000/svg" xmlns:xlink="http://www.w3.org/1999/xlink" viewBox="0 0 494.44 452.13"><defs><style>.cls-1{fill:#5f5f5f;}.cls-2{fill:url(#linear-gradient);}.cls-3{fill:url(#linear-gradient-2);}.cls-4{fill:url(#linear-gradient-3);}.cls-5{fill:#8a8a8a;}.cls-6{fill:#f1f1f1;}.cls-13,.cls-7{fill:#5a5a5a;}.cls-8{fill:#9b9b9b;}.cls-9{fill:#999;}.cls-10{fill:#bebebe;}.cls-11{fill:#b1b1b1;}.cls-12{fill:#e2e2e2;}.cls-13{opacity:0.15;isolation:isolate;}.cls-14{fill:#f7f7f7;}.cls-15{fill:#e4e4e4;}.cls-16{fill:#e9e9e9;}.cls-17{fill:url(#linear-gradient-4);}.cls-18{fill:gray;}.cls-19{fill:#fff;}.cls-20{fill:#767676;}.cls-21{fill:url(#linear-gradient-5);}.cls-22{fill:#cecece;}.cls-23{fill:url(#radial-gradient);}.cls-24{fill:#535353;}.cls-25{fill:#eee;}.cls-26{fill:#606060;}.cls-27{fill:#4b4b4b;}</style><linearGradient id="linear-gradient" x1="150.27" y1="4.06" x2="150.27" y2="189.01" gradientTransform="matrix(1, 0, 0, -1, 0, 452.82)" gradientUnits="userSpaceOnUse"><stop offset="0" stop-color="#919191"/><stop offset="0.25" stop-color="#8d8d8d"/><stop offset="0.53" stop-color="#838383"/><stop offset="0.81" stop-color="#727272"/><stop offset="1" stop-color="#646464"/></linearGradient><linearGradient id="linear-gradient-2" x1="104.21" y1="4.07" x2="104.21" y2="192.09" gradientTransform="matrix(0.62, 0.78, 0.78, -0.62, -37.41, 334.08)" xlink:href="#linear-gradient"/><linearGradient id="linear-gradient-3" x1="196.95" y1="4.02" x2="196.95" y2="192.07" gradientTransform="matrix(0.78, 0.62, 0.62, -0.78, -18.29, 309.21)" xlink:href="#linear-gradient"/><linearGradient id="linear-gradient-4" x1="426.83" y1="133.24" x2="407.18" y2="119.76" gradientTransform="matrix(1, 0, 0, -1, 0, 452.82)" gradientUnits="userSpaceOnUse"><stop offset="0" stop-color="#efefef" stop-opacity="0"/><stop offset="1" stop-color="#c2c2c2"/></linearGradient><linearGradient id="linear-gradient-5" x1="280.32" y1="165.94" x2="240.16" y2="186.97" xlink:href="#linear-gradient-4"/><radialGradient id="radial-gradient" cx="-912.31" cy="82.9" r="20.1" gradientTransform="translate(-278.58 225.84) rotate(180) scale(0.63)" gradientUnits="userSpaceOnUse"><stop offset="0" stop-color="#d2d2d2"/><stop offset="0.09" stop-color="#d2d2d2" stop-opacity="0.97"/><stop offset="0.22" stop-color="#d4d4d4" stop-opacity="0.9"/><stop offset="0.37" stop-color="#d6d6d6" stop-opacity="0.77"/><stop offset="0.54" stop-color="#d9d9d9" stop-opacity="0.6"/><stop offset="0.73" stop-color="#ddd" stop-opacity="0.38"/><stop offset="0.92" stop-color="#e2e2e2" stop-opacity="0.12"/><stop offset="1" stop-color="#e5e5e5" stop-opacity="0"/></radialGradient></defs><title>mascot-01-gray</title><path class="cls-1" d="M200.67,313.94a92.72,92.72,0,0,1-4.82-13.68l16.65-20.77Z"/><path class="cls-1" d="M225.14,345.11a83.28,83.28,0,0,1-10.2-9.36l11.83-29Z"/><rect class="cls-2" x="146.4" y="263.82" width="7.74" height="184.95"/><rect class="cls-3" x="-12.75" y="350.88" width="233.89" height="7.74" transform="translate(-238.46 215.87) rotate(-51.57)"/><rect class="cls-4" x="193.08" y="237.84" width="7.74" height="233.89" transform="translate(-177.83 199.2) rotate(-38.42)"/><polygon class="cls-5" points="282.88 359.76 150.58 359.76 149.46 359.76 17.13 359.76 0 359.76 0 342.61 0 141.83 0 124.67 17.13 124.67 149.46 124.67 150.58 124.67 282.88 124.67 300.01 124.67 300.01 141.83 300.01 342.61 300.01 359.76 282.88 359.76"/><path class="cls-6" d="M271.17,135H28.84a15.64,15.64,0,0,0-15.61,15.61v183.1a15.64,15.64,0,0,0,15.61,15.61H271.17a15.64,15.64,0,0,0,15.61-15.61V150.69A15.64,15.64,0,0,0,271.17,135Z"/><rect class="cls-7" x="17.43" y="441.11" width="28.79" height="11.02"/><rect class="cls-7" x="135.86" y="441.11" width="28.79" height="11.02"/><rect class="cls-7" x="252.78" y="441.08" width="28.79" height="11.02"/><rect class="cls-8" x="38.07" y="322.23" width="80.45" height="5.94"/><rect class="cls-9" x="38.07" y="269.82" width="23.71" height="46.47"/><rect class="cls-10" x="66.24" y="229.17" width="23.71" height="87.12"/><rect class="cls-11" x="94.77" y="246.61" width="23.74" height="69.68"/><rect class="cls-8" x="141.11" y="223.23" width="5.94" height="104.92"/><rect class="cls-12" x="163.87" y="223.23" width="2.27" height="101.95"/><rect class="cls-12" x="183.15" y="223.23" width="2.27" height="101.95"/><rect class="cls-12" x="202.41" y="223.23" width="2.27" height="101.95"/><rect class="cls-12" x="221.69" y="223.23" width="2.27" height="101.95"/><rect class="cls-12" x="240.98" y="223.23" width="2.27" height="101.95"/><rect class="cls-12" x="260.26" y="223.23" width="2.27" height="101.95"/><rect class="cls-8" x="141.11" y="322.23" width="126.42" height="5.94"/><rect class="cls-12" x="147.05" y="230.71" width="115.49" height="2.27"/><rect class="cls-12" x="147.05" y="249.97" width="115.49" height="2.27"/><rect class="cls-12" x="147.05" y="269.25" width="115.49" height="2.27"/><rect class="cls-12" x="147.05" y="288.54" width="115.49" height="2.27"/><rect class="cls-12" x="147.05" y="307.8" width="115.49" height="2.27"/><polygon class="cls-9" points="263.32 233.77 259.45 229.9 207.54 306.59 187.05 286.19 187.05 286.16 183.21 282.32 183.18 282.32 183.15 282.32 179.31 286.16 179.31 286.19 149.29 316.26 153.13 320.13 183.18 290.02 207.71 314.44 207.73 314.41 263.32 233.77"/><polygon class="cls-9" points="263.94 241.28 251.57 232.98 266.29 224.6 263.94 241.28"/><path class="cls-8" d="M48.91,174.23a13.74,13.74,0,0,0,6.45,1.54c2,0,3.87-.39,3.87-2.3,0-4.37-11.21-1.63-11.21-10.15,0-5.61,5.61-7.2,10.23-7.2a19.85,19.85,0,0,1,6.22.84l-0.39,4.85a12.59,12.59,0,0,0-5.21-1c-1.57,0-4.2,0-4.2,2.19,0,3.78,11.21,1.23,11.21,9.73,0,6.08-5.1,7.74-10.32,7.74a24.61,24.61,0,0,1-7.18-1Z"/><path class="cls-8" d="M75.93,161.17H70.08v-4.63H87.9v4.63H82.21V180H75.93V161.17Z"/><path class="cls-8" d="M97.63,156.54h7.65L114.34,180H107.5l-1.74-5H96.93l-1.85,5H88.74Zm3.84,4.85h0l-3.08,9.17h5.89Z"/><path class="cls-8" d="M121.09,161.17h-5.77v-4.63h17.83v4.63h-5.8V180h-6.25V161.17Z"/><path class="cls-8" d="M138.58,156.54h6.25V180h-6.25V156.54Z"/><path class="cls-8" d="M152.09,174.23a13.74,13.74,0,0,0,6.45,1.54c2,0,3.87-.39,3.87-2.3,0-4.37-11.21-1.63-11.21-10.15,0-5.61,5.61-7.2,10.23-7.2a19.85,19.85,0,0,1,6.05.87l-0.39,4.85a12.59,12.59,0,0,0-5.21-1.07c-1.57,0-4.2,0-4.2,2.19,0,3.78,11.21,1.23,11.21,9.73,0,6.08-5.1,7.74-10.32,7.74a24.61,24.61,0,0,1-7-1Z"/><path class="cls-8" d="M179.14,161.17h-5.77v-4.63h17.8v4.63h-5.77V180h-6.25V161.17Z"/><path class="cls-8" d="M196.63,156.54h6.25V180h-6.25V156.54Z"/><path class="cls-8" d="M229.65,179.39a26,26,0,0,1-7,1c-6.25,0-13.48-3.17-13.48-12,0-8.16,5.61-12.25,13.45-12.25a24.39,24.39,0,0,1,7,1.21l-0.5,5.07a12.31,12.31,0,0,0-6.11-1.65,7.51,7.51,0,1,0,.5,15,16.51,16.51,0,0,0,5.86-1.21Z"/><path class="cls-8" d="M235.12,174.23a13.73,13.73,0,0,0,6.45,1.54c2,0,3.87-.39,3.87-2.3,0-4.37-11.21-1.63-11.21-10.15,0-5.61,5.61-7.2,10.23-7.2a19.85,19.85,0,0,1,6.05.87l-0.39,4.85a12.59,12.59,0,0,0-5.21-1.07c-1.57,0-4.2,0-4.2,2.19,0,3.78,11.21,1.23,11.21,9.73,0,6.08-5.1,7.74-10.32,7.74a24.61,24.61,0,0,1-7-1Z"/><path class="cls-13" d="M299.93,301s-38.18,7.54-63.63-11.55l-1.4,1-14-6.25,0.84-3.28a6.87,6.87,0,0,1-5.86,0,7,7,0,0,1-9.42,3.09l-0.11-.06c-6.81-2.8,1.15-10.4,1.15-10.4l3.39-5.89-4.57,4.88s-10.09,2.8-10.09-4.85,11.8-6.92,11.8-6.92-12.11-1.26-11.07-7.68,17.72,0,17.72,0l10.29-2s-0.48-3.64,2-4.23,11.21,9.81,11.21,9.81l13.43,17.52,48.35,7.54V301Z"/><path class="cls-13" d="M299.93,250s-34.59-3.06-37.28-52.73c0,0-19.31-3.06-21.36-28.87A10.37,10.37,0,0,1,235,161.2c-1-5.3,19.62-10.51,33.64-11.21s31.28,21,31.28,21v79Z"/><path class="cls-14" d="M261.78,190.6a15.64,15.64,0,0,1-7.88-4.2h7.48Z"/><path class="cls-15" d="M238.62,257.06s1.46-17.91-5.61-17.83-4.32,10.68-4.32,10.68-19.62-16.59-24.92-10.46,10.4,10.43,10.4,10.43S199,246.19,199,255.07s13.45,6.19,13.45,6.19-12.47,6.5-7.37,12,14.18-2.19,14.18-2.19a8.41,8.41,0,0,0,6.9,1.91Z"/><path class="cls-16" d="M340.4,272.09s-16.82,21.28-52.7,21.11S235,277.5,235,277.5l11.91-14a87.65,87.65,0,0,0,40.78,11.69c21.81,0,52.7-25.79,52.7-25.79V272Z"/><path class="cls-7" d="M359.13,367.75h0l3.92,84.37H310.91s19.43-13.23,35.09-18L340.26,350h64l-5.75,84.09c15.7,4.79,35.09,18,35.09,18H381.55l3.92-84.37H359.13Z"/><path class="cls-16" d="M404.68,268.78s14.18-.5,19.2,19.12c5.61,22.42-14.44,32.77-14.44,32.77V344s41.74-14.88,31.59-58.86C431.67,245,400.58,245,400.58,245Z"/><path class="cls-17" d="M432.29,327.45A58.42,58.42,0,0,1,409.44,344V320.66a32.68,32.68,0,0,0,11.72-11.35Z"/><path class="cls-18" d="M411.85,344l-6-98.81-34.34,2.58-34.34-2.58-6,98.81s-1.18,7.09,9.08,7.68h62.48C413,351,411.85,344,411.85,344Z"/><polygon class="cls-16" points="405.85 245.15 370.98 290.39 337.18 245.15 405.85 245.15"/><polygon class="cls-7" points="385.11 247.73 370.98 247.73 356.86 249.49 366.58 261.57 361.34 278.48 370.98 290.39 380.63 278.48 375.38 261.57 385.11 247.73"/><polygon class="cls-19" points="366.81 247.73 356.86 263.56 337.18 245.15 366.81 245.15 366.81 247.73"/><polygon class="cls-19" points="375.16 247.73 385.08 263.56 404.76 245.15 375.16 245.15 375.16 247.73"/><rect class="cls-20" x="383.26" y="286.19" width="18.64" height="6.45"/><path class="cls-21" d="M287.71,275.25a87.65,87.65,0,0,1-40.81-11.77L235,277.5s16.82,15.42,52.7,15.58V275.25h0Z"/><polygon class="cls-16" points="250.4 263.56 237.08 280.86 224.94 275.25 239.44 254.37 250.4 263.56"/><path class="cls-22" d="M297.66,159.91s-30.16,24.3-35.37-9.47,31-17,31-17Z"/><path class="cls-15" d="M475.85,151.72C482,52.58,379.9,65.78,352.93,70.43s-83.22-3.81-74.67,37c4.93,23.49,2.8,51.91,2.8,76h0c0.28,55.92,55.3,68.17,55.3,68.17h0a141.44,141.44,0,0,0,38.46,3.36c24.53-2,55.72-17.52,71.87-31.37,15.39-13.2,29.57-68,29.57-68Z"/><path class="cls-22" d="M467.46,150.66s-6.9,44.15-25,63.83-40.53,31.25-72.23,33.78c-26.66,2.13-50.62-6.14-65.76-13.26a82.69,82.69,0,0,0,31.93,16.57h0a141.44,141.44,0,0,0,38.46,3.36c24.53-2,55.72-17.52,71.87-31.37,15.39-13.2,29.57-68,29.57-68Z"/><path class="cls-7" d="M373.34,111s7.62-11.72,20.52-9.39a21.22,21.22,0,0,1,16.43,12.89,37.28,37.28,0,0,0-17-6.9A38.82,38.82,0,0,0,373.34,111Z"/><circle class="cls-23" cx="295.97" cy="172.38" r="12.61"/><path class="cls-7" d="M296.37,113.49a21.19,21.19,0,0,1,17.07-12c13-1.63,20.13,10.62,20.13,10.62a35,35,0,0,0-19.85-4.88A27.69,27.69,0,0,0,296.37,113.49Z"/><circle class="cls-24" cx="306.57" cy="146.17" r="9.39"/><circle class="cls-25" cx="337.82" cy="180.01" r="3.39"/><path class="cls-22" d="M430.24,77.64A663.12,663.12,0,0,1,360.7,94.09a79.1,79.1,0,0,1-14.38,5.61c25.51,0.67,76.61-14,76.61-14s8.07,49.64,53,67.27C434.75,134.26,430.24,77.64,430.24,77.64Z"/><circle class="cls-26" cx="305.17" cy="145.42" r="5.21"/><path class="cls-7" d="M326.47,183.51s14.18,8,20.77,8.8C347.24,192.31,327.62,200,326.47,183.51Z"/><path class="cls-22" d="M425.7,141.6s-9.17-13.68-36.44-13.68-33,7.18-33,7.18H335.47s-21.3-7.26-34.2-7.26a100.91,100.91,0,0,0-25.7,3.9l-0.31-6.5,28-4.85,43.62,7.9,46.61-7.76,24.13,5.61,8.13,14v1.4Z"/><path class="cls-27" d="M431.67,123.52a138.11,138.11,0,0,0-42.35-7.62c-21.84,0-35.26,7.62-45.24,7.62s-23.41-7.62-45.24-7.62a138,138,0,0,0-42.35,7.62c-3.62,1.07-3.22,8.41-1,11.21a19,19,0,0,1,3.06,5.61c2.1,16.82,10.79,43.39,41.68,43.64s36.94-32.88,38.26-39.44,5.61-6.05,5.61-6.05,4.2-.53,5.61,6.05S357.11,184.27,388,184s39.58-26.83,41.71-43.64a19.09,19.09,0,0,1,3.06-5.61C435,132,435.37,124.59,431.67,123.52ZM299,177.17c-24.55,1.68-32.18-22.42-30.61-38.12s31.81-14.46,31.81-14.46,25.23-1.65,28.17,13.88S323.58,175.49,299,177.17Zm90.29,0c-24.58-1.68-32.29-23.21-29.4-38.71s28.17-13.88,28.17-13.88,30.24-1.32,31.84,14.46-6.05,39.8-30.64,38.12h0Z"/><circle class="cls-19" cx="262.62" cy="130.11" r="3.95"/><circle class="cls-19" cx="425.7" cy="130.11" r="3.95"/><circle class="cls-24" cx="377.21" cy="147.91" r="9.39"/><circle class="cls-26" cx="376.39" cy="146.82" r="5.21"/><path class="cls-7" d="M466.79,38.54S449.47,9,393.27,1.2s-106.52,24-117.73,61.67,4.26,53.26,4.26,53.26l7.88-32.4c32.09,11,71.11,3.17,71.11,3.17a121.68,121.68,0,0,1-15.7,9.22l2.8-.2C376.73,93.45,430,77.64,430,77.64s4.51,56.65,45.69,75.29C475.93,152.93,520.05,75.68,466.79,38.54Z"/><path class="cls-24" d="M466.79,38.54S405.12,57.12,355.26,61.1s-79.69,1.77-79.69,1.77c-11.21,37.7,4.26,53.26,4.26,53.26l7.88-32.4c32.07,11,71.09,3.17,71.09,3.17a121.68,121.68,0,0,1-15.7,9.22l2.8-.2C376.73,93.45,430,77.64,430,77.64s4.6,57.52,45.77,76.16C476,153.8,520.05,75.68,466.79,38.54Z"/><path class="cls-22" d="M287.71,83.75c32.07,11,71.09,3.14,71.09,3.14a57.94,57.94,0,0,1-8.13,5.21S309.65,96.9,287.71,83.75Z"/><path class="cls-7" d="M322.13,210.22s28.76,8.07,44.65,1.4C366.81,211.71,341.38,231.33,322.13,210.22Z"/><path class="cls-15" d="M459.11,174.46s31,23.24,35-10.71-31.62-15.92-31.62-15.92Z"/></svg>